<?xml version="1.0" encoding="utf-8"?>
<!-- Svg Vector Icons : http://www.onlinewebfonts.com/icon -->
<!DOCTYPE svg PUBLIC "-//W3C//DTD SVG 1.1//EN" "http://www.w3.org/Graphics/SVG/1.1/DTD/svg11.dtd">
<svg version="1.1" xmlns="http://www.w3.org/2000/svg" xmlns:xlink="http://www.w3.org/1999/xlink" x="0px" y="0px" viewBox="0 0 1000 1000" enable-background="new 0 0 1000 1000" xml:space="preserve">
<metadata> Svg Vector Icons : http://www.onlinewebfonts.com/icon </metadata>
<g><path d="M229.5,735L229.5,735c-13.7-13.7-13.7-35.9,0-49.6L511.9,403c13.7-13.7,35.9-13.7,49.6,0l0,0c13.7,13.7,13.7,35.9,0,49.6L279.1,735C265.5,748.7,243.2,748.7,229.5,735z"/><path d="M665.9,603.3L665.9,603.3c-13.7-13.7-13.7-35.9,0-49.6L859.6,360c13.7-13.7,35.9-13.7,49.6,0l0,0c13.7,13.7,13.7,35.9,0,49.6L715.5,603.3C701.8,616.9,679.6,616.9,665.9,603.3z"/><path d="M714.2,603.3L714.2,603.3c-13.7,13.7-35.9,13.7-49.6,0l-150.9-151c-13.7-13.7-13.7-35.9,0-49.6l0,0c13.7-13.7,35.9-13.7,49.6,0l151,151C727.9,567.3,727.9,589.6,714.2,603.3z"/><path d="M955,885.4H115.1c-19.4,0-35-15.7-35-35V79.5c0-19.4-15.7-35-35-35l0,0c-19.4,0-35,15.7-35,35v805.9c0,38.7,31.4,70.1,70.1,70.1H955c19.4,0,35-15.7,35-35l0,0C990,901.1,974.3,885.4,955,885.4z"/></g>
</svg>