<?xml version="1.0" encoding="utf-8"?>
<!-- Generator: Adobe Illustrator 16.0.0, SVG Export Plug-In . SVG Version: 6.00 Build 0)  -->
<!DOCTYPE svg PUBLIC "-//W3C//DTD SVG 1.1//EN" "http://www.w3.org/Graphics/SVG/1.1/DTD/svg11.dtd">
<svg version="1.1" id="Layer_1" xmlns="http://www.w3.org/2000/svg" xmlns:xlink="http://www.w3.org/1999/xlink" x="0px" y="0px"
	 width="90.684px" height="48px" viewBox="0 0 90.684 48" enable-background="new 0 0 90.684 48" xml:space="preserve">
<path fill="none" d="M0,0h85.674v48H0V0z"/>
<path d="M24,10c-7.74,0-14,6.26-14,14h4c0-5.52,4.48-10,10-10c5.52,0,10,4.48,10,10h4C38,16.26,31.74,10,24,10z M26,28.58
	c1.76-0.78,3-2.52,3-4.58c0-2.76-2.24-5-5-5s-5,2.24-5,5c0,2.04,1.24,3.8,3,4.58v6.6L15.18,42L18,44.82l6-6l6,6L32.82,42L26,35.18
	V28.58z M24,2C11.86,2,2,11.86,2,24h4c0-9.94,8.06-18,18-18c9.939,0,18,8.06,18,18h4C46,11.86,36.141,2,24,2z"/>
<text transform="matrix(1 0 0 1 36.1729 43.6641)" font-family="'MyriadPro-Regular'" font-size="24">RQM</text>
</svg>
